<svg version="1.1" xmlns="http://www.w3.org/2000/svg" xmlns:xlink="http://www.w3.org/1999/xlink" viewBox="0 0 172 172"><defs><linearGradient x1="86" y1="17.37267" x2="86" y2="157.99376" gradientUnits="userSpaceOnUse" id="color-1"><stop offset="0" stop-color="#1a6dff"></stop><stop offset="1" stop-color="#c822ff"></stop></linearGradient></defs><g fill="none" fill-rule="nonzero" stroke="none" stroke-width="1" stroke-linecap="butt" stroke-linejoin="miter" stroke-miterlimit="10" stroke-dasharray="" stroke-dashoffset="0" font-family="none" font-weight="none" font-size="none" text-anchor="none" style="mix-blend-mode: normal"><path d="M0,172v-172h172v172z" fill="none"></path><g fill="url(#color-1)"><path d="M163.03685,65.88977c-4.36484,-3.36475 -10.53668,-6.36198 -18.34387,-8.90772c-11.10609,-3.62174 -24.77438,-6.09155 -39.64533,-7.22971c-1.78887,-11.20788 -4.40313,-21.20807 -7.63989,-29.04314c-5.19628,-12.57582 -11.76722,-19.22302 -19.00365,-19.22302c-4.47872,0 -8.68936,2.51584 -12.51434,7.47696c-3.36509,4.36484 -6.36165,10.53668 -8.90805,18.34387c-2.32267,7.12355 -4.17066,15.30296 -5.4993,24.17541c-8.87245,1.32863 -17.05185,3.17662 -24.17541,5.49963c-7.80719,2.54573 -13.97903,5.54297 -18.34219,8.90772c-4.9628,3.82498 -7.47864,8.03562 -7.47864,12.51468c0,7.23609 6.6472,13.80703 19.22268,19.0023c7.83507,3.23676 17.83492,5.85136 29.0428,7.64023c1.13883,14.87162 3.60864,28.53991 7.23005,39.646c2.54607,7.80719 5.54297,13.97903 8.90805,18.34387c3.82498,4.96112 8.03563,7.47696 12.51434,7.47696c15.93251,0 25.69183,-31.6013 28.4707,-63.60708c31.96378,-2.72412 63.63899,-12.49284 63.63899,-28.50228c0,-4.47905 -2.51584,-8.6897 -7.47696,-12.51468zM62.092,28.9736c4.515,-13.846 10.61294,-22.11241 16.31212,-22.11241c4.74478,0 9.86044,5.79526 14.0348,15.89992c2.96935,7.18906 5.39516,16.33765 7.10575,26.63346c-4.4374,-0.23717 -8.96248,-0.36013 -13.54466,-0.36013c-9.68091,-0.01606 -19.35401,0.55034 -28.96688,1.69615c1.11625,-7.37318 2.80771,-14.64771 5.05888,-21.75699zM22.76111,92.43891c-10.10466,-4.17436 -15.89992,-9.28968 -15.89992,-14.03446c0,-5.69952 8.26641,-11.79745 22.11208,-16.31212c7.10936,-2.25141 14.38401,-3.94298 21.75733,-5.05922c-1.14581,9.61287 -1.71221,19.28598 -1.69615,28.96688c0,4.58219 0.12262,9.10727 0.36013,13.545c-10.29581,-1.71093 -19.44574,-4.13673 -26.63346,-7.10609zM78.40412,165.13881c-5.69918,0 -11.79712,-8.26641 -16.31212,-22.11208c-3.39734,-10.41843 -5.71094,-23.21597 -6.85313,-37.18828c2.6875,0.35307 5.22954,0.65978 8.25298,0.91778v13.52283c-0.01466,0.98169 0.51385,1.89127 1.37398,2.36466c0.38559,0.21188 0.81845,0.32293 1.25842,0.32284c0.52093,0.00012 1.03039,-0.15292 1.46502,-0.44008l23.16087,-15.19445c2.46108,-0.02184 7.3493,-0.12295 10.71137,-0.19652c-1.45965,16.28323 -4.5879,30.96739 -8.8795,41.58906c-4.21501,10.4312 -9.38341,16.41424 -14.17791,16.41424zM68.86719,115.30148v-21.30415l16.24191,10.65224zM148.8875,92.58438c-11.11953,4.52709 -26.7806,7.75848 -44.1012,9.10122c-0.92383,0.0215 -10.36434,0.23919 -14.0526,0.27278l-23.15315,-15.18572c-0.81222,-0.54184 -1.85834,-0.58716 -2.71438,-0.11758c-0.86014,0.47339 -1.38865,1.38297 -1.37398,2.36466v12.3363c-3.02344,-0.27748 -5.83255,-0.60872 -8.63359,-0.99202c-0.27211,-4.69238 -0.43067,-9.49427 -0.43067,-14.36502c-0.02322,-9.94765 0.58617,-19.88671 1.82448,-29.75701c9.86863,-1.24147 19.80625,-1.85389 29.75264,-1.83355c4.87109,0 9.6703,0.1767 14.36267,0.44915c0.38297,2.80105 0.71219,5.61016 0.98934,8.63359h-12.3363c-0.98237,-0.01708 -1.89317,0.51209 -2.36487,1.37398c-0.4717,0.86189 -0.42646,1.91428 0.11745,2.73252l15.62882,23.82066c0.49792,0.75657 1.34344,1.21145 2.24916,1.21003c0.90572,-0.00142 1.7498,-0.45896 2.24535,-1.21709l15.62882,-23.83073c0.54142,-0.81251 0.5866,-1.85855 0.11724,-2.71471c-0.47348,-0.86001 -1.38304,-1.38838 -2.36466,-1.37365h-13.52283c-0.258,-3.02344 -0.56471,-5.56682 -0.91778,-8.25298c13.975,1.14219 26.77086,3.47393 37.18828,6.87127c13.84566,4.51466 22.11208,10.60387 22.11208,16.30305c0.00101,4.80626 -5.92325,9.96525 -16.2503,14.17085zM115.30148,68.86719l-10.65191,16.24191l-10.65224,-16.24191z"></path></g></g></svg>